<svg xmlns="http://www.w3.org/2000/svg" width="256" height="256" viewBox="0 0 256 256" version="1.1"><path d="M 45 99.500 L 45 165 129 165 L 213 165 213 99.500 L 213 34 129 34 L 45 34 45 99.500 M 57 99.500 L 57 153 129 153 L 201 153 201 99.500 L 201 46 129 46 L 57 46 57 99.500 M 119.304 54.956 C 112.980 58.812, 110.686 65.429, 113.568 71.502 C 118 80.842, 130.665 81.517, 136.040 72.701 C 139.992 66.221, 137.281 57.269, 130.510 54.440 C 125.878 52.504, 123.116 52.632, 119.304 54.956 M 88.912 70.280 C 82.658 74.495, 81.142 81.939, 85.283 88.102 C 87.889 91.981, 94.173 94.675, 98.237 93.655 C 102.313 92.632, 106.854 88.220, 108.095 84.077 C 109.056 80.869, 108.929 79.627, 107.248 75.828 C 103.946 68.364, 95.533 65.818, 88.912 70.280 M 156.030 85.279 C 152.643 86.993, 149 92.677, 149 96.247 C 149 106.080, 160.477 112.849, 168.374 107.674 C 171.702 105.494, 174.991 100.300, 174.996 97.218 C 175.012 87.774, 164.355 81.067, 156.030 85.279 M 114.415 87.421 C 110.862 88.968, 107 93.456, 107 96.036 C 107 97.008, 108.551 98.717, 110.446 99.836 C 114.191 102.045, 118 108.411, 118 112.460 L 118 115 131.116 115 L 144.233 115 143.837 105.162 C 143.399 94.239, 142.179 91.299, 136.696 87.956 C 132.835 85.602, 119.338 85.278, 114.415 87.421 M 83.190 103.026 C 78.520 105.872, 77 110.280, 77 120.968 L 77 130 95.500 130 L 114 130 113.985 120.250 C 113.969 109.253, 113.057 106.629, 108.088 103.280 C 105.180 101.321, 103.425 101.001, 95.602 101.004 C 88.237 101.007, 85.868 101.393, 83.190 103.026 M 149.314 118.950 C 144.644 121.798, 143.705 124.374, 143.196 135.750 L 142.738 146 161.369 146 L 180 146 180 135.950 C 180 119.686, 177.417 116.997, 161.800 117.004 C 154.356 117.007, 151.864 117.395, 149.314 118.950 M 38.645 181.244 C 36.189 185.785, 30.350 196.700, 25.669 205.500 L 17.158 221.500 72.579 221.758 C 103.061 221.901, 152.939 221.901, 183.419 221.758 L 238.838 221.500 226.042 197.500 L 213.245 173.500 128.178 173.244 L 43.111 172.989 38.645 181.244" stroke="none" fill="#24447c" fill-rule="evenodd"/></svg>