<svg xmlns="http://www.w3.org/2000/svg" width="256" height="256" viewBox="0 0 256 256" version="1.1"><path d="M 44 99 L 44 165 128.500 165 L 213 165 213 99 L 213 33 128.500 33 L 44 33 44 99 M 57 99 L 57 152 128.500 152 L 200 152 200 99 L 200 46 128.500 46 L 57 46 57 99 M 120.538 53.499 C 105.199 58.962, 111.536 82.561, 127.536 79.559 C 137.107 77.764, 141.926 66.051, 136.363 58.107 C 134.851 55.949, 127.779 52.016, 125.500 52.066 C 124.950 52.078, 122.717 52.723, 120.538 53.499 M 90.415 68.421 C 86.930 69.939, 83.246 74.173, 82.368 77.669 C 80.701 84.313, 85.426 92.230, 92.138 94.037 C 97.425 95.461, 101.971 93.936, 105.950 89.404 C 111.591 82.979, 109.416 72.323, 101.717 68.670 C 97.517 66.677, 94.570 66.612, 90.415 68.421 M 155.304 84.956 C 149.021 88.787, 146.891 94.807, 149.448 101.504 C 151.530 106.956, 156.015 110, 161.964 110 C 172.792 110, 179.157 98.370, 173.348 89.202 C 171.223 85.850, 166.016 83.007, 162 83.007 C 160.075 83.007, 157.062 83.884, 155.304 84.956 M 115.462 86.006 C 111.504 87.232, 107.188 91.797, 106.452 95.536 C 105.941 98.128, 106.251 98.667, 108.922 99.828 C 113.067 101.632, 116.164 106.278, 116.763 111.591 L 117.260 116 130.630 116 L 144 116 144 105.404 C 144 93.557, 142.945 90.580, 137.636 87.444 C 134.083 85.345, 120.449 84.461, 115.462 86.006 M 84.071 101.752 C 77.657 105.022, 76.500 107.784, 76.500 119.822 L 76.500 130.500 95.500 130.500 L 114.500 130.500 114.783 120.447 C 115.039 111.354, 114.846 110.064, 112.763 106.947 C 109.305 101.771, 104.909 100.003, 95.500 100.003 C 89.858 100.003, 86.489 100.518, 84.071 101.752 M 149.299 117.960 C 144.213 121.060, 143 124.526, 143 135.950 L 143 146 162 146 L 181 146 180.996 135.750 C 180.990 119.396, 177.596 115.997, 161.282 116.004 C 154.337 116.007, 151.830 116.416, 149.299 117.960 M 29.500 196.592 C 22.350 210.098, 16.350 221.564, 16.167 222.074 C 15.963 222.639, 59.587 223, 128 223 C 196.413 223, 240.037 222.639, 239.833 222.074 C 239.650 221.564, 233.650 210.098, 226.500 196.592 L 213.500 172.038 128 172.038 L 42.500 172.038 29.500 196.592" stroke="none" fill="#cc1404" fill-rule="evenodd"/></svg>