<svg xmlns="http://www.w3.org/2000/svg" width="256" height="256" viewBox="0 0 256 256" version="1.1"><path d="M 101.096 16.265 C 99.774 16.944, 97.749 18.770, 96.596 20.322 C 94.565 23.056, 94.491 24.351, 94.207 61.861 C 93.879 105.074, 94.080 106.799, 99.898 110.713 L 103.296 113 153.198 113 C 207.941 113, 207.366 113.060, 210.483 107.033 C 211.544 104.981, 212 101.076, 212 94.039 L 212 83.979 226.245 93.490 C 240.118 102.752, 240.639 103, 246.245 103 L 252 103 252 64 L 252 25 246.245 25 C 240.639 25, 240.118 25.248, 226.245 34.510 L 212 44.021 212 33.233 C 212 21.396, 211.209 19.194, 205.989 16.494 C 203.538 15.227, 195.546 15.002, 153.300 15.015 C 115.765 15.026, 102.908 15.334, 101.096 16.265 M 31.667 23.667 C 31.300 24.033, 31 58.683, 31 100.667 L 31 177 129 177 L 227 177 227 145 L 227 113 219.500 113 L 212 113 212 137 L 212 161 129.500 161 L 47 161 47 100 L 47 39 66.366 39 L 85.731 39 86.258 31.750 C 86.548 27.762, 86.582 24.163, 86.334 23.750 C 85.776 22.823, 32.591 22.742, 31.667 23.667 M 106.676 26.657 C 106.304 27.029, 106 44.138, 106 64.676 L 106 102.020 153.250 101.760 L 200.500 101.500 200.500 64 L 200.500 26.500 153.926 26.240 C 128.311 26.097, 107.048 26.285, 106.676 26.657 M 134 64 C 134 80.549, 134.384 93.022, 134.887 92.833 C 136.580 92.197, 177.953 64.497, 177.953 64 C 177.953 63.503, 136.580 35.803, 134.887 35.167 C 134.384 34.978, 134 47.451, 134 64 M 28.664 186.245 C 23.702 194.304, -0 240.444, -0 242.045 C -0 243.986, 1.390 244.005, 128.250 243.754 L 256.500 243.500 256.816 241.278 C 256.990 240.056, 256.622 238.481, 255.998 237.778 C 255.374 237.075, 248.667 224.800, 241.093 210.500 L 227.321 184.500 128.687 184.245 L 30.052 183.990 28.664 186.245 M 0.195 241.500 C 0.215 243.150, 0.439 243.704, 0.693 242.731 C 0.947 241.758, 0.930 240.408, 0.656 239.731 C 0.382 239.054, 0.175 239.850, 0.195 241.500" stroke="none" fill="#049424" fill-rule="evenodd"/></svg>