<svg xmlns="http://www.w3.org/2000/svg" width="256" height="256" viewBox="0 0 256 256" version="1.1"><path d="M 44 99 L 44 165 128.500 165 L 213 165 213 99 L 213 33 128.500 33 L 44 33 44 99 M 57 99 L 57 152 128.500 152 L 200 152 200 99 L 200 46 128.500 46 L 57 46 57 99 M 120.538 53.499 C 118.359 54.275, 115.776 55.943, 114.798 57.205 C 113.821 58.467, 112.602 60.962, 112.091 62.750 C 111.517 64.757, 111.519 67.295, 112.096 69.384 C 112.610 71.246, 113.930 73.913, 115.031 75.312 C 116.131 76.711, 118.629 78.382, 120.581 79.027 C 122.533 79.671, 125.663 79.911, 127.536 79.559 C 129.409 79.208, 132.274 77.799, 133.904 76.427 C 135.533 75.056, 137.391 72.345, 138.032 70.402 C 138.674 68.459, 138.926 65.421, 138.594 63.650 C 138.262 61.880, 137.258 59.385, 136.363 58.107 C 135.467 56.829, 132.882 54.942, 130.617 53.914 C 128.353 52.885, 126.050 52.054, 125.500 52.066 C 124.950 52.078, 122.717 52.723, 120.538 53.499 M 90.415 68.421 C 88.719 69.160, 86.346 71.016, 85.143 72.545 C 83.941 74.074, 82.692 76.380, 82.368 77.669 C 82.045 78.958, 82.072 81.572, 82.430 83.477 C 82.787 85.382, 84.220 88.296, 85.613 89.952 C 87.063 91.675, 89.853 93.422, 92.138 94.037 C 95.023 94.814, 97.069 94.802, 99.515 93.995 C 101.377 93.381, 104.273 91.315, 105.950 89.404 C 108.430 86.580, 108.999 85.049, 108.996 81.215 C 108.994 78.368, 108.249 75.280, 107.114 73.420 C 106.081 71.726, 103.652 69.588, 101.717 68.670 C 99.781 67.751, 97.141 67.018, 95.849 67.039 C 94.557 67.061, 92.112 67.683, 90.415 68.421 M 155.304 84.956 C 153.547 86.028, 151.440 87.939, 150.622 89.202 C 149.804 90.466, 148.826 92.757, 148.448 94.293 C 148.018 96.044, 148.391 98.735, 149.448 101.504 C 150.542 104.367, 152.296 106.638, 154.436 107.960 C 156.395 109.171, 159.454 110, 161.964 110 C 164.289 110, 167.508 109.222, 169.117 108.272 C 170.726 107.321, 172.970 104.628, 174.104 102.286 C 175.581 99.234, 175.972 97.103, 175.484 94.764 C 175.110 92.969, 174.148 90.466, 173.348 89.202 C 172.547 87.939, 170.453 86.028, 168.696 84.956 C 166.938 83.884, 163.925 83.007, 162 83.007 C 160.075 83.007, 157.062 83.884, 155.304 84.956 M 115.462 86.006 C 113.792 86.524, 111.212 88.213, 109.730 89.760 C 108.248 91.307, 106.773 93.906, 106.452 95.536 C 105.941 98.128, 106.251 98.667, 108.922 99.828 C 110.601 100.559, 112.941 102.513, 114.121 104.170 C 115.301 105.827, 116.490 109.167, 116.763 111.591 L 117.260 116 130.630 116 L 144 116 144 105.404 C 144 97.391, 143.601 94.134, 142.364 92.040 C 141.465 90.517, 139.337 88.449, 137.636 87.444 C 135.488 86.175, 132.096 85.533, 126.522 85.341 C 122.110 85.189, 117.133 85.488, 115.462 86.006 M 84.071 101.752 C 82.185 102.713, 79.710 104.770, 78.571 106.322 C 76.782 108.760, 76.500 110.598, 76.500 119.822 L 76.500 130.500 95.500 130.500 L 114.500 130.500 114.783 120.447 C 115.039 111.354, 114.846 110.064, 112.763 106.947 C 111.496 105.051, 108.894 102.713, 106.980 101.752 C 104.534 100.523, 101.123 100.003, 95.500 100.003 C 89.858 100.003, 86.489 100.518, 84.071 101.752 M 149.299 117.960 C 147.538 119.033, 145.400 121.259, 144.549 122.906 C 143.452 125.027, 143 128.833, 143 135.950 L 143 146 162 146 L 181 146 180.996 135.750 C 180.993 127.234, 180.651 124.940, 178.974 122.190 C 177.864 120.369, 175.406 118.232, 173.510 117.440 C 171.396 116.556, 166.671 116.001, 161.282 116.004 C 154.337 116.007, 151.830 116.416, 149.299 117.960 M 29.500 196.592 C 22.350 210.098, 16.350 221.564, 16.167 222.074 C 15.963 222.639, 59.587 223, 128 223 C 196.413 223, 240.037 222.639, 239.833 222.074 C 239.650 221.564, 233.650 210.098, 226.500 196.592 L 213.500 172.038 128 172.038 L 42.500 172.038 29.500 196.592" stroke="none" fill="#fcac04" fill-rule="evenodd"/></svg>